<svg width="20" height="20" viewBox="0 0 20 20"><g fill-rule="evenodd"><path d="M1.111 2.217v15.566c0 .611.495 1.106 1.106 1.106h15.566c.611 0 1.106-.495 1.106-1.106V2.217c0-.611-.495-1.106-1.106-1.106H2.217c-.611 0-1.106.495-1.106 1.106zM0 2.217C0 .992.992 0 2.217 0h15.566C19.008 0 20 .992 20 2.217v15.566A2.216 2.216 0 0 1 17.783 20H2.217A2.216 2.216 0 0 1 0 17.783V2.217z" fill-opacity=".13" fill="#091E42" fill-rule="nonzero"/><path d="M1.111 2.217v15.566c0 .611.495 1.106 1.106 1.106h15.566c.611 0 1.106-.495 1.106-1.106V2.217c0-.611-.495-1.106-1.106-1.106H2.217c-.611 0-1.106.495-1.106 1.106z" fill="#FFF"/></g></svg>